<?xml version="1.0" encoding="UTF-8" standalone="no"?>
<!DOCTYPE svg PUBLIC "-//W3C//DTD SVG 1.1//EN" "http://www.w3.org/Graphics/SVG/1.1/DTD/svg11.dtd">
<!-- Generated by graphviz version 2.40.1 (20161225.0304)
 -->
<!-- Title: WebsiteConnections Pages: 1 -->
<svg width="4458pt" height="188pt" viewBox="0.00 0.00 4457.67 188.00" xmlns="http://www.w3.org/2000/svg" xmlns:xlink="http://www.w3.org/1999/xlink">
<g id="graph0" class="graph" transform="scale(1 1) rotate(0) translate(4 184)">
<title>WebsiteConnections</title>
<polygon fill="#ffffff" stroke="transparent" points="-4,4 -4,-184 4453.6693,-184 4453.6693,4 -4,4"/>
<!-- netflix&#45;en&#45;france.fr -->
<g id="node1" class="node">
<title>netflix-en-france.fr</title>
<ellipse fill="none" stroke="#000000" cx="376.1413" cy="-90" rx="84.5063" ry="18"/>
<text text-anchor="middle" x="376.1413" y="-85.8" font-family="Times,serif" font-size="14.00" fill="#000000">netflix-en-france.fr</text>
</g>
<!-- www.choosefrance.fr -->
<g id="node2" class="node">
<title>www.choosefrance.fr</title>
<ellipse fill="none" stroke="#000000" cx="94.1413" cy="-18" rx="94.2828" ry="18"/>
<text text-anchor="middle" x="94.1413" y="-13.8" font-family="Times,serif" font-size="14.00" fill="#000000">www.choosefrance.fr</text>
</g>
<!-- netflix&#45;en&#45;france.fr&#45;&gt;www.choosefrance.fr -->
<g id="edge1" class="edge">
<title>netflix-en-france.fr-&gt;www.choosefrance.fr</title>
<path fill="none" stroke="#000000" d="M321.7688,-76.1177C275.8002,-64.381 209.7753,-47.5236 160.6612,-34.9838"/>
<polygon fill="#000000" stroke="#000000" points="161.3181,-31.5393 150.7631,-32.4566 159.5864,-38.3218 161.3181,-31.5393"/>
</g>
<!-- help.netflix.com -->
<g id="node3" class="node">
<title>help.netflix.com</title>
<ellipse fill="none" stroke="#000000" cx="280.1413" cy="-18" rx="74.1586" ry="18"/>
<text text-anchor="middle" x="280.1413" y="-13.8" font-family="Times,serif" font-size="14.00" fill="#000000">help.netflix.com</text>
</g>
<!-- netflix&#45;en&#45;france.fr&#45;&gt;help.netflix.com -->
<g id="edge2" class="edge">
<title>netflix-en-france.fr-&gt;help.netflix.com</title>
<path fill="none" stroke="#000000" d="M352.9024,-72.5708C340.403,-63.1963 324.8188,-51.5081 311.2833,-41.3565"/>
<polygon fill="#000000" stroke="#000000" points="313.2662,-38.4687 303.1662,-35.2687 309.0662,-44.0687 313.2662,-38.4687"/>
</g>
<!-- api.netflix&#45;en&#45;france.fr -->
<g id="node4" class="node">
<title>api.netflix-en-france.fr</title>
<ellipse fill="none" stroke="#000000" cx="471.1413" cy="-18" rx="98.9318" ry="18"/>
<text text-anchor="middle" x="471.1413" y="-13.8" font-family="Times,serif" font-size="14.00" fill="#000000">api.netflix-en-france.fr</text>
</g>
<!-- netflix&#45;en&#45;france.fr&#45;&gt;api.netflix&#45;en&#45;france.fr -->
<g id="edge3" class="edge">
<title>netflix-en-france.fr-&gt;api.netflix-en-france.fr</title>
<path fill="none" stroke="#000000" d="M399.1381,-72.5708C411.4164,-63.2652 426.7025,-51.6799 440.0279,-41.5807"/>
<polygon fill="#000000" stroke="#000000" points="442.1713,-44.3479 448.0269,-35.5182 437.9431,-38.7691 442.1713,-44.3479"/>
</g>
<!-- www.facebook.com -->
<g id="node5" class="node">
<title>www.facebook.com</title>
<ellipse fill="none" stroke="#000000" cx="1313.1413" cy="-90" rx="88.5909" ry="18"/>
<text text-anchor="middle" x="1313.1413" y="-85.8" font-family="Times,serif" font-size="14.00" fill="#000000">www.facebook.com</text>
</g>
<!-- www.threads.net -->
<g id="node6" class="node">
<title>www.threads.net</title>
<ellipse fill="none" stroke="#000000" cx="1415.1413" cy="-18" rx="76.4246" ry="18"/>
<text text-anchor="middle" x="1415.1413" y="-13.8" font-family="Times,serif" font-size="14.00" fill="#000000">www.threads.net</text>
</g>
<!-- www.facebook.com&#45;&gt;www.threads.net -->
<g id="edge4" class="edge">
<title>www.facebook.com-&gt;www.threads.net</title>
<path fill="none" stroke="#000000" d="M1337.8326,-72.5708C1351.2385,-63.1078 1367.9841,-51.2874 1382.4593,-41.0696"/>
<polygon fill="#000000" stroke="#000000" points="1384.526,-43.895 1390.6773,-35.2687 1380.4892,-38.1762 1384.526,-43.895"/>
</g>
<!-- it&#45;it.facebook.com -->
<g id="node7" class="node">
<title>it-it.facebook.com</title>
<ellipse fill="none" stroke="#000000" cx="1591.1413" cy="-18" rx="81.6616" ry="18"/>
<text text-anchor="middle" x="1591.1413" y="-13.8" font-family="Times,serif" font-size="14.00" fill="#000000">it-it.facebook.com</text>
</g>
<!-- www.facebook.com&#45;&gt;it&#45;it.facebook.com -->
<g id="edge5" class="edge">
<title>www.facebook.com-&gt;it-it.facebook.com</title>
<path fill="none" stroke="#000000" d="M1368.0651,-75.7751C1414.1052,-63.8511 1479.8573,-46.8217 1528.05,-34.3402"/>
<polygon fill="#000000" stroke="#000000" points="1528.9453,-37.7239 1537.7483,-31.8284 1527.1902,-30.9475 1528.9453,-37.7239"/>
</g>
<!-- pt&#45;br.facebook.com -->
<g id="node8" class="node">
<title>pt-br.facebook.com</title>
<ellipse fill="none" stroke="#000000" cx="1777.1413" cy="-18" rx="86.803" ry="18"/>
<text text-anchor="middle" x="1777.1413" y="-13.8" font-family="Times,serif" font-size="14.00" fill="#000000">pt-br.facebook.com</text>
</g>
<!-- www.facebook.com&#45;&gt;pt&#45;br.facebook.com -->
<g id="edge6" class="edge">
<title>www.facebook.com-&gt;pt-br.facebook.com</title>
<path fill="none" stroke="#000000" d="M1387.4957,-80.0518C1462.1196,-69.8483 1580.2976,-53.0926 1682.1413,-36 1689.1978,-34.8157 1696.5382,-33.5267 1703.8723,-32.2008"/>
<polygon fill="#000000" stroke="#000000" points="1704.6357,-35.6193 1713.8422,-30.3762 1703.3755,-28.7337 1704.6357,-35.6193"/>
</g>
<!-- ar&#45;ar.facebook.com -->
<g id="node9" class="node">
<title>ar-ar.facebook.com</title>
<ellipse fill="none" stroke="#000000" cx="674.1413" cy="-18" rx="86.1981" ry="18"/>
<text text-anchor="middle" x="674.1413" y="-13.8" font-family="Times,serif" font-size="14.00" fill="#000000">ar-ar.facebook.com</text>
</g>
<!-- www.facebook.com&#45;&gt;ar&#45;ar.facebook.com -->
<g id="edge7" class="edge">
<title>www.facebook.com-&gt;ar-ar.facebook.com</title>
<path fill="none" stroke="#000000" d="M1228.989,-83.9645C1121.8498,-75.7491 931.1853,-59.3476 769.1413,-36 761.6061,-34.9143 753.7593,-33.6484 745.9477,-32.3002"/>
<polygon fill="#000000" stroke="#000000" points="746.5552,-28.8534 736.098,-30.5558 745.3344,-35.7461 746.5552,-28.8534"/>
</g>
<!-- messenger.com -->
<g id="node10" class="node">
<title>messenger.com</title>
<ellipse fill="none" stroke="#000000" cx="849.1413" cy="-18" rx="70.6669" ry="18"/>
<text text-anchor="middle" x="849.1413" y="-13.8" font-family="Times,serif" font-size="14.00" fill="#000000">messenger.com</text>
</g>
<!-- www.facebook.com&#45;&gt;messenger.com -->
<g id="edge8" class="edge">
<title>www.facebook.com-&gt;messenger.com</title>
<path fill="none" stroke="#000000" d="M1235.981,-81.0281C1158.2299,-71.5469 1034.9417,-55.3084 929.1413,-36 923.3096,-34.9357 917.2584,-33.7414 911.2135,-32.4876"/>
<polygon fill="#000000" stroke="#000000" points="911.5953,-28.9906 901.086,-30.3337 910.1391,-35.8375 911.5953,-28.9906"/>
</g>
<!-- about.meta.com -->
<g id="node11" class="node">
<title>about.meta.com</title>
<ellipse fill="none" stroke="#000000" cx="1011.1413" cy="-18" rx="72.9353" ry="18"/>
<text text-anchor="middle" x="1011.1413" y="-13.8" font-family="Times,serif" font-size="14.00" fill="#000000">about.meta.com</text>
</g>
<!-- www.facebook.com&#45;&gt;about.meta.com -->
<g id="edge9" class="edge">
<title>www.facebook.com-&gt;about.meta.com</title>
<path fill="none" stroke="#000000" d="M1255.27,-76.2029C1203.2989,-63.8124 1127.1805,-45.665 1073.7919,-32.9366"/>
<polygon fill="#000000" stroke="#000000" points="1074.3043,-29.4607 1063.7652,-30.5461 1072.6809,-36.2699 1074.3043,-29.4607"/>
</g>
<!-- developers.facebook.com -->
<g id="node12" class="node">
<title>developers.facebook.com</title>
<ellipse fill="none" stroke="#000000" cx="1211.1413" cy="-18" rx="109.9189" ry="18"/>
<text text-anchor="middle" x="1211.1413" y="-13.8" font-family="Times,serif" font-size="14.00" fill="#000000">developers.facebook.com</text>
</g>
<!-- www.facebook.com&#45;&gt;developers.facebook.com -->
<g id="edge10" class="edge">
<title>www.facebook.com-&gt;developers.facebook.com</title>
<path fill="none" stroke="#000000" d="M1288.4499,-72.5708C1275.3646,-63.3341 1259.0974,-51.8514 1244.8656,-41.8054"/>
<polygon fill="#000000" stroke="#000000" points="1246.502,-38.6764 1236.3139,-35.7689 1242.4651,-44.3951 1246.502,-38.6764"/>
</g>
<!-- www.france.fr -->
<g id="node13" class="node">
<title>www.france.fr</title>
<ellipse fill="none" stroke="#000000" cx="3110.1413" cy="-162" rx="67.1541" ry="18"/>
<text text-anchor="middle" x="3110.1413" y="-157.8" font-family="Times,serif" font-size="14.00" fill="#000000">www.france.fr</text>
</g>
<!-- www.france.fr&#45;&gt;netflix&#45;en&#45;france.fr -->
<g id="edge11" class="edge">
<title>www.france.fr-&gt;netflix-en-france.fr</title>
<path fill="none" stroke="#000000" d="M3042.8987,-160.2292C2674.4706,-150.5266 901.5361,-103.8363 470.6602,-92.4892"/>
<polygon fill="#000000" stroke="#000000" points="470.5172,-88.9843 460.4285,-92.2197 470.3328,-95.9818 470.5172,-88.9843"/>
</g>
<!-- www.france.fr&#45;&gt;www.facebook.com -->
<g id="edge12" class="edge">
<title>www.france.fr-&gt;www.facebook.com</title>
<path fill="none" stroke="#000000" d="M3043.5162,-159.3305C2770.2553,-148.3819 1734.5507,-106.8845 1410.5993,-93.9048"/>
<polygon fill="#000000" stroke="#000000" points="1410.4319,-90.3954 1400.2997,-93.4922 1410.1516,-97.3898 1410.4319,-90.3954"/>
</g>
<!-- www.qwant.com -->
<g id="node14" class="node">
<title>www.qwant.com</title>
<ellipse fill="none" stroke="#000000" cx="2672.1413" cy="-90" rx="77.0101" ry="18"/>
<text text-anchor="middle" x="2672.1413" y="-85.8" font-family="Times,serif" font-size="14.00" fill="#000000">www.qwant.com</text>
</g>
<!-- www.france.fr&#45;&gt;www.qwant.com -->
<g id="edge13" class="edge">
<title>www.france.fr-&gt;www.qwant.com</title>
<path fill="none" stroke="#000000" d="M3050.1859,-153.8099C2979.9997,-143.9891 2860.3444,-126.5211 2758.1413,-108 2751.9357,-106.8754 2745.4915,-105.6446 2739.0476,-104.3712"/>
<polygon fill="#000000" stroke="#000000" points="2739.4494,-100.8821 2728.956,-102.3443 2738.0709,-107.745 2739.4494,-100.8821"/>
</g>
<!-- www.youtube.com -->
<g id="node15" class="node">
<title>www.youtube.com</title>
<ellipse fill="none" stroke="#000000" cx="2852.1413" cy="-90" rx="84.5382" ry="18"/>
<text text-anchor="middle" x="2852.1413" y="-85.8" font-family="Times,serif" font-size="14.00" fill="#000000">www.youtube.com</text>
</g>
<!-- www.france.fr&#45;&gt;www.youtube.com -->
<g id="edge14" class="edge">
<title>www.france.fr-&gt;www.youtube.com</title>
<path fill="none" stroke="#000000" d="M3063.4194,-148.9613C3021.481,-137.2576 2959.6301,-119.9969 2913.6754,-107.1723"/>
<polygon fill="#000000" stroke="#000000" points="2914.4033,-103.7418 2903.8305,-104.4249 2912.5216,-110.4841 2914.4033,-103.7418"/>
</g>
<!-- www.tiktok.com -->
<g id="node16" class="node">
<title>www.tiktok.com</title>
<ellipse fill="none" stroke="#000000" cx="3030.1413" cy="-90" rx="75.8856" ry="18"/>
<text text-anchor="middle" x="3030.1413" y="-85.8" font-family="Times,serif" font-size="14.00" fill="#000000">www.tiktok.com</text>
</g>
<!-- www.france.fr&#45;&gt;www.tiktok.com -->
<g id="edge15" class="edge">
<title>www.france.fr-&gt;www.tiktok.com</title>
<path fill="none" stroke="#000000" d="M3090.7755,-144.5708C3080.7286,-135.5286 3068.29,-124.3338 3057.2987,-114.4417"/>
<polygon fill="#000000" stroke="#000000" points="3059.3803,-111.6064 3049.606,-107.5182 3054.6976,-116.8095 3059.3803,-111.6064"/>
</g>
<!-- francenews.be -->
<g id="node17" class="node">
<title>francenews.be</title>
<ellipse fill="none" stroke="#000000" cx="3190.1413" cy="-90" rx="66.5526" ry="18"/>
<text text-anchor="middle" x="3190.1413" y="-85.8" font-family="Times,serif" font-size="14.00" fill="#000000">francenews.be</text>
</g>
<!-- www.france.fr&#45;&gt;francenews.be -->
<g id="edge16" class="edge">
<title>www.france.fr-&gt;francenews.be</title>
<path fill="none" stroke="#000000" d="M3129.507,-144.5708C3139.6284,-135.4616 3152.177,-124.1679 3163.2279,-114.2221"/>
<polygon fill="#000000" stroke="#000000" points="3165.8623,-116.5599 3170.9538,-107.2687 3161.1795,-111.3568 3165.8623,-116.5599"/>
</g>
<!-- be.meeting.france.fr -->
<g id="node18" class="node">
<title>be.meeting.france.fr</title>
<ellipse fill="none" stroke="#000000" cx="3364.1413" cy="-90" rx="89.1042" ry="18"/>
<text text-anchor="middle" x="3364.1413" y="-85.8" font-family="Times,serif" font-size="14.00" fill="#000000">be.meeting.france.fr</text>
</g>
<!-- www.france.fr&#45;&gt;be.meeting.france.fr -->
<g id="edge17" class="edge">
<title>www.france.fr-&gt;be.meeting.france.fr</title>
<path fill="none" stroke="#000000" d="M3156.4334,-148.8778C3197.3593,-137.2768 3257.3777,-120.2637 3302.3866,-107.5053"/>
<polygon fill="#000000" stroke="#000000" points="3303.3719,-110.864 3312.0383,-104.7694 3301.4628,-104.1293 3303.3719,-110.864"/>
</g>
<!-- www.visitfrenchwine.com -->
<g id="node19" class="node">
<title>www.visitfrenchwine.com</title>
<ellipse fill="none" stroke="#000000" cx="3585.1413" cy="-90" rx="113.4432" ry="18"/>
<text text-anchor="middle" x="3585.1413" y="-85.8" font-family="Times,serif" font-size="14.00" fill="#000000">www.visitfrenchwine.com</text>
</g>
<!-- www.france.fr&#45;&gt;www.visitfrenchwine.com -->
<g id="edge18" class="edge">
<title>www.france.fr-&gt;www.visitfrenchwine.com</title>
<path fill="none" stroke="#000000" d="M3168.862,-153.0992C3250.0113,-140.7986 3397.2557,-118.4795 3493.1003,-103.9515"/>
<polygon fill="#000000" stroke="#000000" points="3493.7151,-107.3984 3503.0776,-102.4391 3492.666,-100.4774 3493.7151,-107.3984"/>
</g>
<!-- www.instagram.com -->
<g id="node20" class="node">
<title>www.instagram.com</title>
<ellipse fill="none" stroke="#000000" cx="1973.1413" cy="-18" rx="91.4732" ry="18"/>
<text text-anchor="middle" x="1973.1413" y="-13.8" font-family="Times,serif" font-size="14.00" fill="#000000">www.instagram.com</text>
</g>
<!-- www.france.fr&#45;&gt;www.instagram.com -->
<g id="edge19" class="edge">
<title>www.france.fr-&gt;www.instagram.com</title>
<path fill="none" stroke="#000000" d="M3042.7957,-160.6157C2911.4015,-157.1472 2611.9357,-145.4696 2363.1413,-108 2246.0877,-90.3712 2112.1235,-56.3516 2035.5865,-35.5614"/>
<polygon fill="#000000" stroke="#000000" points="2036.2002,-32.101 2025.6314,-32.8438 2034.3567,-38.8538 2036.2002,-32.101"/>
</g>
<!-- twitter.com -->
<g id="node21" class="node">
<title>twitter.com</title>
<ellipse fill="none" stroke="#000000" cx="2138.1413" cy="-18" rx="55.072" ry="18"/>
<text text-anchor="middle" x="2138.1413" y="-13.8" font-family="Times,serif" font-size="14.00" fill="#000000">twitter.com</text>
</g>
<!-- www.france.fr&#45;&gt;twitter.com -->
<g id="edge20" class="edge">
<title>www.france.fr-&gt;twitter.com</title>
<path fill="none" stroke="#000000" d="M3045.3934,-157.0605C2946.2183,-149.104 2750.8644,-131.8887 2586.1413,-108 2414.2982,-83.0787 2371.219,-75.5452 2202.1413,-36 2197.8529,-34.997 2193.4212,-33.8931 2188.984,-32.7407"/>
<polygon fill="#000000" stroke="#000000" points="2189.8794,-29.3573 2179.3151,-30.1607 2188.0746,-36.1206 2189.8794,-29.3573"/>
</g>
<!-- www.diplomatie.gouv.fr -->
<g id="node22" class="node">
<title>www.diplomatie.gouv.fr</title>
<ellipse fill="none" stroke="#000000" cx="3823.1413" cy="-90" rx="106.4853" ry="18"/>
<text text-anchor="middle" x="3823.1413" y="-85.8" font-family="Times,serif" font-size="14.00" fill="#000000">www.diplomatie.gouv.fr</text>
</g>
<!-- www.france.fr&#45;&gt;www.diplomatie.gouv.fr -->
<g id="edge21" class="edge">
<title>www.france.fr-&gt;www.diplomatie.gouv.fr</title>
<path fill="none" stroke="#000000" d="M3175.6577,-157.4469C3285.6927,-149.4926 3514.4971,-131.6347 3707.1413,-108 3716.775,-106.8181 3726.8389,-105.453 3736.8396,-104.0137"/>
<polygon fill="#000000" stroke="#000000" points="3737.4142,-107.467 3746.8009,-102.5538 3736.3991,-100.541 3737.4142,-107.467"/>
</g>
<!-- www.atout&#45;france.fr -->
<g id="node23" class="node">
<title>www.atout-france.fr</title>
<ellipse fill="none" stroke="#000000" cx="4037.1413" cy="-90" rx="89.7055" ry="18"/>
<text text-anchor="middle" x="4037.1413" y="-85.8" font-family="Times,serif" font-size="14.00" fill="#000000">www.atout-france.fr</text>
</g>
<!-- www.france.fr&#45;&gt;www.atout&#45;france.fr -->
<g id="edge22" class="edge">
<title>www.france.fr-&gt;www.atout-france.fr</title>
<path fill="none" stroke="#000000" d="M3177.1955,-160.2344C3318.4182,-155.9434 3656.6572,-142.6523 3938.1413,-108 3946.3662,-106.9875 3954.9423,-105.7321 3963.4569,-104.3587"/>
<polygon fill="#000000" stroke="#000000" points="3964.112,-107.7979 3973.3995,-102.6997 3962.9598,-100.8933 3964.112,-107.7979"/>
</g>
<!-- www.airfrance.com -->
<g id="node24" class="node">
<title>www.airfrance.com</title>
<ellipse fill="none" stroke="#000000" cx="4233.1413" cy="-90" rx="87.92" ry="18"/>
<text text-anchor="middle" x="4233.1413" y="-85.8" font-family="Times,serif" font-size="14.00" fill="#000000">www.airfrance.com</text>
</g>
<!-- www.france.fr&#45;&gt;www.airfrance.com -->
<g id="edge23" class="edge">
<title>www.france.fr-&gt;www.airfrance.com</title>
<path fill="none" stroke="#000000" d="M3177.6251,-161.4975C3342.1066,-159.6105 3776.5664,-150.6394 4136.1413,-108 4144.1825,-107.0465 4152.5619,-105.8312 4160.8803,-104.4834"/>
<polygon fill="#000000" stroke="#000000" points="4161.691,-107.8962 4170.9699,-102.7824 4160.5272,-100.9936 4161.691,-107.8962"/>
</g>
<!-- be.france.fr -->
<g id="node25" class="node">
<title>be.france.fr</title>
<ellipse fill="none" stroke="#000000" cx="4394.1413" cy="-90" rx="55.556" ry="18"/>
<text text-anchor="middle" x="4394.1413" y="-85.8" font-family="Times,serif" font-size="14.00" fill="#000000">be.france.fr</text>
</g>
<!-- www.france.fr&#45;&gt;be.france.fr -->
<g id="edge24" class="edge">
<title>www.france.fr-&gt;be.france.fr</title>
<path fill="none" stroke="#000000" d="M3177.453,-161.0567C3399.1938,-157.6299 4105.3712,-144.0889 4330.1413,-108 4334.8778,-107.2395 4339.7634,-106.2515 4344.6246,-105.1299"/>
<polygon fill="#000000" stroke="#000000" points="4345.6541,-108.4805 4354.5135,-102.6701 4343.9643,-101.6875 4345.6541,-108.4805"/>
</g>
<!-- www.qwant.com&#45;&gt;www.instagram.com -->
<g id="edge25" class="edge">
<title>www.qwant.com-&gt;www.instagram.com</title>
<path fill="none" stroke="#000000" d="M2597.328,-85.3265C2483.8754,-77.7694 2261.6641,-61.129 2074.1413,-36 2065.9574,-34.9033 2057.4253,-33.6135 2048.9396,-32.2366"/>
<polygon fill="#000000" stroke="#000000" points="2049.462,-28.7754 2039.0231,-30.5864 2048.3129,-35.6805 2049.462,-28.7754"/>
</g>
<!-- www.qwant.com&#45;&gt;twitter.com -->
<g id="edge26" class="edge">
<title>www.qwant.com-&gt;twitter.com</title>
<path fill="none" stroke="#000000" d="M2597.9059,-85.1527C2504.7933,-78.2312 2340.5526,-63.234 2202.1413,-36 2197.6891,-35.124 2193.0951,-34.0925 2188.5078,-32.9741"/>
<polygon fill="#000000" stroke="#000000" points="2189.0899,-29.5101 2178.5337,-30.4131 2187.349,-36.2902 2189.0899,-29.5101"/>
</g>
<!-- shdw.me -->
<g id="node26" class="node">
<title>shdw.me</title>
<ellipse fill="none" stroke="#000000" cx="3088.1413" cy="-18" rx="45.7673" ry="18"/>
<text text-anchor="middle" x="3088.1413" y="-13.8" font-family="Times,serif" font-size="14.00" fill="#000000">shdw.me</text>
</g>
<!-- www.qwant.com&#45;&gt;shdw.me -->
<g id="edge27" class="edge">
<title>www.qwant.com-&gt;shdw.me</title>
<path fill="none" stroke="#000000" d="M2728.462,-77.5712C2738.3291,-75.5772 2748.5165,-73.6348 2758.1413,-72 2879.6658,-51.3588 2912.9347,-63.2882 3033.1413,-36 3036.9455,-35.1364 3040.861,-34.1207 3044.7665,-33.0189"/>
<polygon fill="#000000" stroke="#000000" points="3045.8082,-36.3606 3054.3849,-30.1403 3043.8012,-29.6544 3045.8082,-36.3606"/>
</g>
<!-- api.qwant.com -->
<g id="node27" class="node">
<title>api.qwant.com</title>
<ellipse fill="none" stroke="#000000" cx="3220.1413" cy="-18" rx="67.7799" ry="18"/>
<text text-anchor="middle" x="3220.1413" y="-13.8" font-family="Times,serif" font-size="14.00" fill="#000000">api.qwant.com</text>
</g>
<!-- www.qwant.com&#45;&gt;api.qwant.com -->
<g id="edge28" class="edge">
<title>www.qwant.com-&gt;api.qwant.com</title>
<path fill="none" stroke="#000000" d="M2727.4893,-77.4549C2737.6482,-75.4264 2748.1863,-73.5023 2758.1413,-72 2928.0747,-46.3554 2973.5184,-63.6241 3143.1413,-36 3148.9572,-35.0528 3154.9874,-33.9173 3160.9966,-32.6832"/>
<polygon fill="#000000" stroke="#000000" points="3162.0037,-36.0469 3171.0482,-30.529 3160.5367,-29.2023 3162.0037,-36.0469"/>
</g>
<!-- itunes.apple.com -->
<g id="node28" class="node">
<title>itunes.apple.com</title>
<ellipse fill="none" stroke="#000000" cx="3382.1413" cy="-18" rx="76.4459" ry="18"/>
<text text-anchor="middle" x="3382.1413" y="-13.8" font-family="Times,serif" font-size="14.00" fill="#000000">itunes.apple.com</text>
</g>
<!-- www.qwant.com&#45;&gt;itunes.apple.com -->
<g id="edge29" class="edge">
<title>www.qwant.com-&gt;itunes.apple.com</title>
<path fill="none" stroke="#000000" d="M2726.9961,-77.3277C2737.3001,-75.2866 2748.0161,-73.3908 2758.1413,-72 2995.9971,-39.3277 3059.3242,-68.9527 3297.1413,-36 3303.7669,-35.0819 3310.6475,-33.9418 3317.496,-32.6842"/>
<polygon fill="#000000" stroke="#000000" points="3318.3122,-36.0915 3327.4734,-30.7696 3316.993,-29.2169 3318.3122,-36.0915"/>
</g>
<!-- about.qwant.com -->
<g id="node29" class="node">
<title>about.qwant.com</title>
<ellipse fill="none" stroke="#000000" cx="3554.1413" cy="-18" rx="77.5936" ry="18"/>
<text text-anchor="middle" x="3554.1413" y="-13.8" font-family="Times,serif" font-size="14.00" fill="#000000">about.qwant.com</text>
</g>
<!-- www.qwant.com&#45;&gt;about.qwant.com -->
<g id="edge30" class="edge">
<title>www.qwant.com-&gt;about.qwant.com</title>
<path fill="none" stroke="#000000" d="M2726.9785,-77.1955C2737.2842,-75.1672 2748.0053,-73.31 2758.1413,-72 3071.0558,-31.5588 3154.1803,-76.0804 3467.1413,-36 3474.2936,-35.084 3481.735,-33.9023 3489.1214,-32.5824"/>
<polygon fill="#000000" stroke="#000000" points="3489.9423,-35.9896 3499.1274,-30.709 3488.654,-29.1092 3489.9423,-35.9896"/>
</g>
<!-- betterweb.qwant.com -->
<g id="node30" class="node">
<title>betterweb.qwant.com</title>
<ellipse fill="none" stroke="#000000" cx="3744.1413" cy="-18" rx="94.3234" ry="18"/>
<text text-anchor="middle" x="3744.1413" y="-13.8" font-family="Times,serif" font-size="14.00" fill="#000000">betterweb.qwant.com</text>
</g>
<!-- www.qwant.com&#45;&gt;betterweb.qwant.com -->
<g id="edge31" class="edge">
<title>www.qwant.com-&gt;betterweb.qwant.com</title>
<path fill="none" stroke="#000000" d="M2726.5068,-77.2033C2736.9545,-75.1473 2747.8475,-73.2782 2758.1413,-72 3147.9185,-23.6021 3250.612,-77.899 3641.1413,-36 3649.8621,-35.0644 3658.96,-33.8407 3667.9821,-32.4711"/>
<polygon fill="#000000" stroke="#000000" points="3668.7808,-35.8884 3678.1119,-30.8703 3667.6881,-28.9742 3668.7808,-35.8884"/>
</g>
<!-- linkedin.com -->
<g id="node31" class="node">
<title>linkedin.com</title>
<ellipse fill="none" stroke="#000000" cx="3918.1413" cy="-18" rx="61.9602" ry="18"/>
<text text-anchor="middle" x="3918.1413" y="-13.8" font-family="Times,serif" font-size="14.00" fill="#000000">linkedin.com</text>
</g>
<!-- www.qwant.com&#45;&gt;linkedin.com -->
<g id="edge32" class="edge">
<title>www.qwant.com-&gt;linkedin.com</title>
<path fill="none" stroke="#000000" d="M2726.499,-77.1392C2736.9474,-75.0891 2747.8427,-73.2385 2758.1413,-72 3238.9414,-14.1792 3367.6602,-103.896 3847.1413,-36 3852.6497,-35.22 3858.3491,-34.1809 3864.0131,-32.994"/>
<polygon fill="#000000" stroke="#000000" points="3865.1325,-36.3298 3874.1216,-30.7221 3863.5974,-29.5002 3865.1325,-36.3298"/>
</g>
<!-- www.qwantjunior.com -->
<g id="node32" class="node">
<title>www.qwantjunior.com</title>
<ellipse fill="none" stroke="#000000" cx="2311.1413" cy="-18" rx="100.1452" ry="18"/>
<text text-anchor="middle" x="2311.1413" y="-13.8" font-family="Times,serif" font-size="14.00" fill="#000000">www.qwantjunior.com</text>
</g>
<!-- www.qwant.com&#45;&gt;www.qwantjunior.com -->
<g id="edge33" class="edge">
<title>www.qwant.com-&gt;www.qwantjunior.com</title>
<path fill="none" stroke="#000000" d="M2613.3369,-78.2717C2552.0501,-66.0483 2455.7264,-46.8369 2388.348,-33.3986"/>
<polygon fill="#000000" stroke="#000000" points="2388.7004,-29.9 2378.2089,-31.3764 2387.3312,-36.7648 2388.7004,-29.9"/>
</g>
<!-- www.welcometothejungle.com -->
<g id="node33" class="node">
<title>www.welcometothejungle.com</title>
<ellipse fill="none" stroke="#000000" cx="2561.1413" cy="-18" rx="131.9255" ry="18"/>
<text text-anchor="middle" x="2561.1413" y="-13.8" font-family="Times,serif" font-size="14.00" fill="#000000">www.welcometothejungle.com</text>
</g>
<!-- www.qwant.com&#45;&gt;www.welcometothejungle.com -->
<g id="edge34" class="edge">
<title>www.qwant.com-&gt;www.welcometothejungle.com</title>
<path fill="none" stroke="#000000" d="M2645.8358,-72.937C2631.2308,-63.4635 2612.8551,-51.5441 2596.9557,-41.231"/>
<polygon fill="#000000" stroke="#000000" points="2598.7114,-38.198 2588.4171,-35.6924 2594.902,-44.0707 2598.7114,-38.198"/>
</g>
<!-- help.qwant.com -->
<g id="node34" class="node">
<title>help.qwant.com</title>
<ellipse fill="none" stroke="#000000" cx="2783.1413" cy="-18" rx="72.9373" ry="18"/>
<text text-anchor="middle" x="2783.1413" y="-13.8" font-family="Times,serif" font-size="14.00" fill="#000000">help.qwant.com</text>
</g>
<!-- www.qwant.com&#45;&gt;help.qwant.com -->
<g id="edge35" class="edge">
<title>www.qwant.com-&gt;help.qwant.com</title>
<path fill="none" stroke="#000000" d="M2698.4467,-72.937C2713.3763,-63.253 2732.246,-51.0131 2748.3831,-40.5458"/>
<polygon fill="#000000" stroke="#000000" points="2750.5397,-43.3188 2757.0246,-34.9405 2746.7303,-37.4461 2750.5397,-43.3188"/>
</g>
<!-- play.google.com -->
<g id="node35" class="node">
<title>play.google.com</title>
<ellipse fill="none" stroke="#000000" cx="2949.1413" cy="-18" rx="75.3079" ry="18"/>
<text text-anchor="middle" x="2949.1413" y="-13.8" font-family="Times,serif" font-size="14.00" fill="#000000">play.google.com</text>
</g>
<!-- www.qwant.com&#45;&gt;play.google.com -->
<g id="edge36" class="edge">
<title>www.qwant.com-&gt;play.google.com</title>
<path fill="none" stroke="#000000" d="M2723.9179,-76.5418C2770.5039,-64.4328 2838.9941,-46.6303 2888.2041,-33.8393"/>
<polygon fill="#000000" stroke="#000000" points="2889.289,-37.1737 2898.0869,-31.2705 2887.5279,-30.3988 2889.289,-37.1737"/>
</g>
</g>
</svg>